<svg width="50" height="50" viewBox="0 0 50 50" fill="none" xmlns="http://www.w3.org/2000/svg">
<rect x="1" y="1" width="48" height="48" rx="24" stroke="#474747" stroke-width="2"/>
<path d="M29.37 25.79C29.2479 25.7415 29.1174 25.7174 28.9859 25.7192C28.8545 25.7211 28.7247 25.7488 28.604 25.8008C28.4833 25.8528 28.374 25.9281 28.2824 26.0223C28.1908 26.1166 28.1186 26.2279 28.07 26.35C28.0214 26.4722 27.9974 26.6027 27.9992 26.7341C28.001 26.8655 28.0288 26.9953 28.0808 27.116C28.1328 27.2367 28.208 27.346 28.3023 27.4377C28.3965 27.5293 28.5079 27.6015 28.63 27.65C30.09 28.23 31 29.13 31 30C31 31.42 28.54 33 25 33C21.46 33 19 31.42 19 30C19 29.13 19.91 28.23 21.37 27.65C21.6167 27.5519 21.8142 27.3598 21.9192 27.116C22.0243 26.8722 22.0281 26.5967 21.93 26.35C21.8319 26.1034 21.6398 25.9058 21.396 25.8008C21.1522 25.6958 20.8767 25.6919 20.63 25.79C18.36 26.69 17 28.26 17 30C17 32.8 20.51 35 25 35C29.49 35 33 32.8 33 30C33 28.26 31.64 26.69 29.37 25.79ZM24 22.86V30C24 30.2653 24.1054 30.5196 24.2929 30.7072C24.4804 30.8947 24.7348 31 25 31C25.2652 31 25.5196 30.8947 25.7071 30.7072C25.8946 30.5196 26 30.2653 26 30V22.86C26.9427 22.6167 27.7642 22.0378 28.3106 21.232C28.857 20.4263 29.0908 19.4489 28.9681 18.483C28.8454 17.5172 28.3747 16.6293 27.6442 15.9857C26.9137 15.3421 25.9736 14.9871 25 14.9871C24.0264 14.9871 23.0863 15.3421 22.3558 15.9857C21.6253 16.6293 21.1546 17.5172 21.0319 18.483C20.9092 19.4489 21.143 20.4263 21.6894 21.232C22.2358 22.0378 23.0573 22.6167 24 22.86ZM25 17C25.3956 17 25.7822 17.1173 26.1111 17.3371C26.44 17.5569 26.6964 17.8692 26.8478 18.2347C26.9991 18.6001 27.0387 19.0023 26.9616 19.3902C26.8844 19.7782 26.6939 20.1346 26.4142 20.4143C26.1345 20.694 25.7781 20.8844 25.3902 20.9616C25.0022 21.0388 24.6001 20.9992 24.2346 20.8478C23.8692 20.6964 23.5568 20.4401 23.3371 20.1112C23.1173 19.7823 23 19.3956 23 19C23 18.4696 23.2107 17.9609 23.5858 17.5858C23.9609 17.2108 24.4696 17 25 17Z" fill="#474747"/>
</svg>
