<svg width="20" height="20" viewBox="0 0 20 20" fill="none" xmlns="http://www.w3.org/2000/svg">
<path d="M3.33325 9.99996C3.33325 10.221 3.42105 10.4329 3.57733 10.5892C3.73361 10.7455 3.94557 10.8333 4.16659 10.8333H10.4916L8.57492 12.7416C8.49681 12.8191 8.43482 12.9113 8.39251 13.0128C8.3502 13.1144 8.32842 13.2233 8.32842 13.3333C8.32842 13.4433 8.3502 13.5522 8.39251 13.6538C8.43482 13.7553 8.49681 13.8475 8.57492 13.925C8.65239 14.0031 8.74455 14.0651 8.8461 14.1074C8.94765 14.1497 9.05658 14.1715 9.16658 14.1715C9.2766 14.1715 9.38552 14.1497 9.48707 14.1074C9.58861 14.0651 9.68078 14.0031 9.75825 13.925L13.0916 10.5916C13.1675 10.5124 13.2269 10.4189 13.2666 10.3166C13.3499 10.1137 13.3499 9.88618 13.2666 9.68329C13.2269 9.581 13.1675 9.48755 13.0916 9.40829L9.75825 6.07496C9.68055 5.99726 9.58831 5.93563 9.48679 5.89358C9.38527 5.85153 9.27647 5.82988 9.16658 5.82988C9.0567 5.82988 8.9479 5.85153 8.84638 5.89358C8.74486 5.93563 8.65262 5.99726 8.57492 6.07496C8.49722 6.15266 8.43559 6.2449 8.39354 6.34642C8.35148 6.44794 8.32984 6.55674 8.32984 6.66663C8.32984 6.77651 8.35148 6.88532 8.39354 6.98683C8.43559 7.08835 8.49722 7.18059 8.57492 7.25829L10.4916 9.16663H4.16659C3.94557 9.16663 3.73361 9.25442 3.57733 9.4107C3.42105 9.56698 3.33325 9.77895 3.33325 9.99996ZM14.1666 1.66663H5.83325C5.17021 1.66663 4.53433 1.93002 4.06549 2.39886C3.59664 2.8677 3.33325 3.50358 3.33325 4.16663V6.66663C3.33325 6.88764 3.42105 7.0996 3.57733 7.25588C3.73361 7.41216 3.94557 7.49996 4.16659 7.49996C4.3876 7.49996 4.59956 7.41216 4.75584 7.25588C4.91212 7.0996 4.99992 6.88764 4.99992 6.66663V4.16663C4.99992 3.94561 5.08772 3.73365 5.244 3.57737C5.40028 3.42109 5.61224 3.33329 5.83325 3.33329H14.1666C14.3876 3.33329 14.5996 3.42109 14.7558 3.57737C14.9121 3.73365 14.9999 3.94561 14.9999 4.16663V15.8333C14.9999 16.0543 14.9121 16.2663 14.7558 16.4225C14.5996 16.5788 14.3876 16.6666 14.1666 16.6666H5.83325C5.61224 16.6666 5.40028 16.5788 5.244 16.4225C5.08772 16.2663 4.99992 16.0543 4.99992 15.8333V13.3333C4.99992 13.1123 4.91212 12.9003 4.75584 12.744C4.59956 12.5878 4.3876 12.5 4.16659 12.5C3.94557 12.5 3.73361 12.5878 3.57733 12.744C3.42105 12.9003 3.33325 13.1123 3.33325 13.3333V15.8333C3.33325 16.4963 3.59664 17.1322 4.06549 17.6011C4.53433 18.0699 5.17021 18.3333 5.83325 18.3333H14.1666C14.8296 18.3333 15.4655 18.0699 15.9344 17.6011C16.4032 17.1322 16.6666 16.4963 16.6666 15.8333V4.16663C16.6666 3.50358 16.4032 2.8677 15.9344 2.39886C15.4655 1.93002 14.8296 1.66663 14.1666 1.66663Z" fill="#7B838A"/>
</svg>
