<svg width="50" height="50" viewBox="0 0 50 50" fill="none" xmlns="http://www.w3.org/2000/svg">
<rect x="1" y="1" width="48" height="48" rx="24" stroke="#474747" stroke-width="2"/>
<path d="M27 21H28C28.2652 21 28.5196 20.8946 28.7071 20.7071C28.8946 20.5196 29 20.2652 29 20C29 19.7348 28.8946 19.4804 28.7071 19.2929C28.5196 19.1054 28.2652 19 28 19H27C26.7348 19 26.4804 19.1054 26.2929 19.2929C26.1054 19.4804 26 19.7348 26 20C26 20.2652 26.1054 20.5196 26.2929 20.7071C26.4804 20.8946 26.7348 21 27 21V21ZM27 25H28C28.2652 25 28.5196 24.8946 28.7071 24.7071C28.8946 24.5196 29 24.2652 29 24C29 23.7348 28.8946 23.4804 28.7071 23.2929C28.5196 23.1054 28.2652 23 28 23H27C26.7348 23 26.4804 23.1054 26.2929 23.2929C26.1054 23.4804 26 23.7348 26 24C26 24.2652 26.1054 24.5196 26.2929 24.7071C26.4804 24.8946 26.7348 25 27 25V25ZM22 21H23C23.2652 21 23.5196 20.8946 23.7071 20.7071C23.8946 20.5196 24 20.2652 24 20C24 19.7348 23.8946 19.4804 23.7071 19.2929C23.5196 19.1054 23.2652 19 23 19H22C21.7348 19 21.4804 19.1054 21.2929 19.2929C21.1054 19.4804 21 19.7348 21 20C21 20.2652 21.1054 20.5196 21.2929 20.7071C21.4804 20.8946 21.7348 21 22 21V21ZM22 25H23C23.2652 25 23.5196 24.8946 23.7071 24.7071C23.8946 24.5196 24 24.2652 24 24C24 23.7348 23.8946 23.4804 23.7071 23.2929C23.5196 23.1054 23.2652 23 23 23H22C21.7348 23 21.4804 23.1054 21.2929 23.2929C21.1054 23.4804 21 23.7348 21 24C21 24.2652 21.1054 24.5196 21.2929 24.7071C21.4804 24.8946 21.7348 25 22 25V25ZM34 33H33V16C33 15.7348 32.8946 15.4804 32.7071 15.2929C32.5196 15.1054 32.2652 15 32 15H18C17.7348 15 17.4804 15.1054 17.2929 15.2929C17.1054 15.4804 17 15.7348 17 16V33H16C15.7348 33 15.4804 33.1054 15.2929 33.2929C15.1054 33.4804 15 33.7348 15 34C15 34.2652 15.1054 34.5196 15.2929 34.7071C15.4804 34.8946 15.7348 35 16 35H34C34.2652 35 34.5196 34.8946 34.7071 34.7071C34.8946 34.5196 35 34.2652 35 34C35 33.7348 34.8946 33.4804 34.7071 33.2929C34.5196 33.1054 34.2652 33 34 33ZM26 33H24V29H26V33ZM31 33H28V28C28 27.7348 27.8946 27.4804 27.7071 27.2929C27.5196 27.1054 27.2652 27 27 27H23C22.7348 27 22.4804 27.1054 22.2929 27.2929C22.1054 27.4804 22 27.7348 22 28V33H19V17H31V33Z" fill="#474747"/>
</svg>
