<svg width="50" height="50" viewBox="0 0 50 50" fill="none" xmlns="http://www.w3.org/2000/svg">
<rect x="1" y="1" width="48" height="48" rx="24" stroke="#474747" stroke-width="2"/>
<path d="M25.3 25.22C25.8336 24.7581 26.2616 24.1869 26.5549 23.545C26.8482 22.9032 27 22.2057 27 21.5C27 20.1739 26.4732 18.9021 25.5355 17.9645C24.5979 17.0268 23.3261 16.5 22 16.5C20.6739 16.5 19.4021 17.0268 18.4645 17.9645C17.5268 18.9021 17 20.1739 17 21.5C17 22.2057 17.1518 22.9032 17.4451 23.545C17.7384 24.1869 18.1664 24.7581 18.7 25.22C17.3001 25.8539 16.1125 26.8775 15.279 28.1685C14.4455 29.4596 14.0015 30.9633 14 32.5C14 32.7652 14.1054 33.0196 14.2929 33.2071C14.4804 33.3946 14.7348 33.5 15 33.5C15.2652 33.5 15.5196 33.3946 15.7071 33.2071C15.8946 33.0196 16 32.7652 16 32.5C16 30.9087 16.6321 29.3826 17.7574 28.2574C18.8826 27.1321 20.4087 26.5 22 26.5C23.5913 26.5 25.1174 27.1321 26.2426 28.2574C27.3679 29.3826 28 30.9087 28 32.5C28 32.7652 28.1054 33.0196 28.2929 33.2071C28.4804 33.3946 28.7348 33.5 29 33.5C29.2652 33.5 29.5196 33.3946 29.7071 33.2071C29.8946 33.0196 30 32.7652 30 32.5C29.9985 30.9633 29.5545 29.4596 28.721 28.1685C27.8875 26.8775 26.6999 25.8539 25.3 25.22ZM22 24.5C21.4067 24.5 20.8266 24.3241 20.3333 23.9944C19.8399 23.6648 19.4554 23.1962 19.2284 22.6481C19.0013 22.0999 18.9419 21.4967 19.0576 20.9147C19.1734 20.3328 19.4591 19.7982 19.8787 19.3787C20.2982 18.9591 20.8328 18.6734 21.4147 18.5576C21.9967 18.4419 22.5999 18.5013 23.1481 18.7284C23.6962 18.9554 24.1648 19.3399 24.4944 19.8333C24.8241 20.3266 25 20.9067 25 21.5C25 22.2956 24.6839 23.0587 24.1213 23.6213C23.5587 24.1839 22.7956 24.5 22 24.5ZM31.74 24.82C32.38 24.0993 32.798 23.2091 32.9438 22.2563C33.0896 21.3036 32.9569 20.3291 32.5618 19.45C32.1666 18.5709 31.5258 17.8248 30.7165 17.3014C29.9071 16.7781 28.9638 16.4997 28 16.5C27.7348 16.5 27.4804 16.6054 27.2929 16.7929C27.1054 16.9804 27 17.2348 27 17.5C27 17.7652 27.1054 18.0196 27.2929 18.2071C27.4804 18.3946 27.7348 18.5 28 18.5C28.7956 18.5 29.5587 18.8161 30.1213 19.3787C30.6839 19.9413 31 20.7044 31 21.5C30.9986 22.0252 30.8593 22.5409 30.5961 22.9954C30.3328 23.4499 29.9549 23.8274 29.5 24.09C29.3517 24.1755 29.2279 24.2977 29.1404 24.4447C29.0528 24.5918 29.0045 24.7589 29 24.93C28.9958 25.0998 29.0349 25.2678 29.1137 25.4183C29.1924 25.5687 29.3081 25.6967 29.45 25.79L29.84 26.05L29.97 26.12C31.1754 26.6917 32.1923 27.596 32.901 28.7263C33.6096 29.8566 33.9805 31.1659 33.97 32.5C33.97 32.7652 34.0754 33.0196 34.2629 33.2071C34.4504 33.3946 34.7048 33.5 34.97 33.5C35.2352 33.5 35.4896 33.3946 35.6771 33.2071C35.8646 33.0196 35.97 32.7652 35.97 32.5C35.9782 30.9654 35.5938 29.4543 34.8535 28.1101C34.1131 26.7659 33.0413 25.6333 31.74 24.82Z" fill="#474747"/>
</svg>
