<svg width="50" height="50" viewBox="0 0 50 50" fill="none" xmlns="http://www.w3.org/2000/svg">
<path d="M39.5835 22.9167H27.0835V10.4167C27.0835 9.86417 26.864 9.33427 26.4733 8.94357C26.0826 8.55287 25.5527 8.33337 25.0002 8.33337C24.4476 8.33337 23.9177 8.55287 23.527 8.94357C23.1363 9.33427 22.9168 9.86417 22.9168 10.4167V22.9167H10.4168C9.8643 22.9167 9.33439 23.1362 8.94369 23.5269C8.55299 23.9176 8.3335 24.4475 8.3335 25C8.3335 25.5526 8.55299 26.0825 8.94369 26.4732C9.33439 26.8639 9.8643 27.0834 10.4168 27.0834H22.9168V39.5834C22.9168 40.1359 23.1363 40.6658 23.527 41.0565C23.9177 41.4472 24.4476 41.6667 25.0002 41.6667C25.5527 41.6667 26.0826 41.4472 26.4733 41.0565C26.864 40.6658 27.0835 40.1359 27.0835 39.5834V27.0834H39.5835C40.136 27.0834 40.6659 26.8639 41.0566 26.4732C41.4473 26.0825 41.6668 25.5526 41.6668 25C41.6668 24.4475 41.4473 23.9176 41.0566 23.5269C40.6659 23.1362 40.136 22.9167 39.5835 22.9167Z" fill="#FE6A5F"/>
</svg>
