<svg width="18" height="18" viewBox="0 0 18 18" fill="none" xmlns="http://www.w3.org/2000/svg">
<path d="M16.7668 6.9583L15.1918 6.4333L15.9334 4.94996C16.0086 4.7947 16.0337 4.61993 16.0054 4.44977C15.977 4.27961 15.8966 4.12245 15.7751 3.99996L14.0001 2.22496C13.8769 2.1017 13.7183 2.02013 13.5464 1.99173C13.3745 1.96333 13.198 1.98953 13.0418 2.06663L11.5584 2.8083L11.0334 1.2333C10.978 1.06912 10.8727 0.926317 10.7323 0.824752C10.5919 0.723187 10.4234 0.667916 10.2501 0.666629H7.75008C7.57538 0.666178 7.40495 0.720645 7.26289 0.82233C7.12083 0.924016 7.01432 1.06778 6.95842 1.2333L6.43342 2.8083L4.95008 2.06663C4.79482 1.99145 4.62005 1.9663 4.44989 1.99466C4.27973 2.02302 4.12257 2.10349 4.00008 2.22496L2.22508 3.99996C2.10182 4.1231 2.02026 4.28177 1.99186 4.45368C1.96345 4.62558 1.98965 4.80205 2.06675 4.9583L2.80842 6.44163L1.23342 6.96663C1.06924 7.02208 0.926439 7.12732 0.824874 7.26772C0.72331 7.40812 0.668038 7.57668 0.666751 7.74996V10.25C0.6663 10.4247 0.720767 10.5951 0.822452 10.7372C0.924138 10.8792 1.0679 10.9857 1.23342 11.0416L2.80842 11.5666L2.06675 13.05C1.99157 13.2052 1.96642 13.38 1.99478 13.5502C2.02314 13.7203 2.10361 13.8775 2.22508 14L4.00008 15.775C4.12322 15.8982 4.2819 15.9798 4.4538 16.0082C4.6257 16.0366 4.80218 16.0104 4.95842 15.9333L6.44175 15.1916L6.96675 16.7666C7.02266 16.9321 7.12917 17.0759 7.27123 17.1776C7.41329 17.2793 7.58371 17.3337 7.75842 17.3333H10.2584C10.4331 17.3337 10.6035 17.2793 10.7456 17.1776C10.8877 17.0759 10.9942 16.9321 11.0501 16.7666L11.5751 15.1916L13.0584 15.9333C13.2127 16.0066 13.3857 16.0307 13.5542 16.0024C13.7226 15.9741 13.8783 15.8947 14.0001 15.775L15.7751 14C15.8983 13.8768 15.9799 13.7182 16.0083 13.5463C16.0367 13.3743 16.0105 13.1979 15.9334 13.0416L15.1918 11.5583L16.7668 11.0333C16.9309 10.9778 17.0737 10.8726 17.1753 10.7322C17.2769 10.5918 17.3321 10.4232 17.3334 10.25V7.74996C17.3339 7.57526 17.2794 7.40483 17.1777 7.26277C17.076 7.12071 16.9323 7.0142 16.7668 6.9583ZM15.6668 9.64996L14.6668 9.9833C14.4368 10.0579 14.2258 10.1816 14.0485 10.3459C13.8711 10.5102 13.7316 10.711 13.6396 10.9346C13.5477 11.1582 13.5054 11.3991 13.5159 11.6406C13.5263 11.8821 13.5892 12.1185 13.7001 12.3333L14.1751 13.2833L13.2584 14.2L12.3334 13.7C12.1197 13.5935 11.8856 13.5342 11.647 13.526C11.4084 13.5179 11.1708 13.5611 10.9503 13.6528C10.7299 13.7445 10.5317 13.8824 10.3692 14.0573C10.2067 14.2322 10.0836 14.44 10.0084 14.6666L9.67508 15.6666H8.35008L8.01675 14.6666C7.94216 14.4367 7.81844 14.2257 7.65417 14.0483C7.48989 13.871 7.28901 13.7315 7.06543 13.6395C6.84186 13.5475 6.60096 13.5053 6.35944 13.5158C6.11792 13.5262 5.88155 13.5891 5.66675 13.7L4.71675 14.175L3.80008 13.2583L4.30008 12.3333C4.411 12.1185 4.47385 11.8821 4.48429 11.6406C4.49473 11.3991 4.4525 11.1582 4.36053 10.9346C4.26857 10.711 4.12907 10.5102 3.95171 10.3459C3.77434 10.1816 3.56337 10.0579 3.33342 9.9833L2.33342 9.64996V8.34996L3.33342 8.01663C3.56337 7.94204 3.77434 7.81832 3.95171 7.65404C4.12907 7.48977 4.26857 7.28888 4.36053 7.06531C4.4525 6.84174 4.49473 6.60084 4.48429 6.35932C4.47385 6.11779 4.411 5.88143 4.30008 5.66663L3.82508 4.74163L4.74175 3.82496L5.66675 4.29996C5.88155 4.41087 6.11792 4.47373 6.35944 4.48417C6.60096 4.49461 6.84186 4.45238 7.06543 4.36041C7.28901 4.26845 7.48989 4.12894 7.65417 3.95158C7.81844 3.77422 7.94216 3.56325 8.01675 3.3333L8.35008 2.3333H9.65008L9.98342 3.3333C10.058 3.56325 10.1817 3.77422 10.346 3.95158C10.5103 4.12894 10.7112 4.26845 10.9347 4.36041C11.1583 4.45238 11.3992 4.49461 11.6407 4.48417C11.8823 4.47373 12.1186 4.41087 12.3334 4.29996L13.2834 3.82496L14.2001 4.74163L13.7001 5.66663C13.5936 5.88033 13.5343 6.11442 13.5262 6.35304C13.518 6.59165 13.5613 6.82924 13.6529 7.0497C13.7446 7.27016 13.8825 7.46835 14.0574 7.63086C14.2324 7.79337 14.4402 7.9164 14.6668 7.99163L15.6668 8.32496V9.64996ZM9.00008 5.66663C8.34081 5.66663 7.69635 5.86213 7.14818 6.2284C6.60002 6.59467 6.17278 7.11526 5.92049 7.72435C5.66819 8.33344 5.60218 9.00366 5.7308 9.65026C5.85942 10.2969 6.17689 10.8908 6.64306 11.357C7.10924 11.8232 7.70318 12.1406 8.34978 12.2692C8.99639 12.3979 9.66661 12.3319 10.2757 12.0796C10.8848 11.8273 11.4054 11.4 11.7716 10.8519C12.1379 10.3037 12.3334 9.65923 12.3334 8.99996C12.3334 8.11591 11.9822 7.26806 11.3571 6.64294C10.732 6.01782 9.88414 5.66663 9.00008 5.66663V5.66663ZM9.00008 10.6666C8.67045 10.6666 8.34822 10.5689 8.07413 10.3857C7.80005 10.2026 7.58643 9.94231 7.46028 9.63777C7.33414 9.33322 7.30113 8.99811 7.36544 8.67481C7.42975 8.35151 7.58849 8.05454 7.82157 7.82145C8.05466 7.58836 8.35163 7.42963 8.67493 7.36532C8.99824 7.30101 9.33335 7.33402 9.63789 7.46016C9.94243 7.58631 10.2027 7.79993 10.3859 8.07401C10.569 8.34809 10.6668 8.67033 10.6668 8.99996C10.6668 9.44199 10.4912 9.86591 10.1786 10.1785C9.86603 10.491 9.44211 10.6666 9.00008 10.6666Z" fill="#7B838A"/>
</svg>
