<svg width="21" height="20" viewBox="0 0 21 20" fill="none" xmlns="http://www.w3.org/2000/svg">
<path d="M20.0005 7.67C19.9373 7.48709 19.8224 7.32643 19.6698 7.2075C19.5171 7.08858 19.3333 7.0165 19.1405 7L13.4505 6.17L10.9005 1C10.8186 0.830929 10.6907 0.688342 10.5316 0.588574C10.3724 0.488805 10.1883 0.43589 10.0005 0.43589C9.81261 0.43589 9.62855 0.488805 9.46938 0.588574C9.3102 0.688342 9.18235 0.830929 9.10047 1L6.55047 6.16L0.860466 7C0.675388 7.02631 0.50139 7.10396 0.358216 7.22416C0.215042 7.34435 0.108426 7.50227 0.0504657 7.68C-0.00258931 7.85367 -0.00735037 8.03852 0.0366935 8.21469C0.0807373 8.39087 0.171923 8.55173 0.300466 8.68L4.43047 12.68L3.43047 18.36C3.39477 18.5475 3.41346 18.7413 3.48434 18.9185C3.55522 19.0956 3.67532 19.2489 3.83047 19.36C3.98168 19.4681 4.16004 19.5319 4.34551 19.5443C4.53099 19.5567 4.71624 19.5171 4.88047 19.43L10.0005 16.76L15.1005 19.44C15.2408 19.5192 15.3993 19.5605 15.5605 19.56C15.7723 19.5608 15.9789 19.4942 16.1505 19.37C16.3056 19.2589 16.4257 19.1056 16.4966 18.9285C16.5675 18.7513 16.5862 18.5575 16.5505 18.37L15.5505 12.69L19.6805 8.69C19.8248 8.56768 19.9316 8.4069 19.9882 8.22635C20.0448 8.04579 20.0491 7.85287 20.0005 7.67ZM13.8505 11.67C13.7332 11.7834 13.6454 11.9238 13.5949 12.079C13.5444 12.2341 13.5325 12.3993 13.5605 12.56L14.2805 16.75L10.5205 14.75C10.3758 14.673 10.2144 14.6327 10.0505 14.6327C9.88655 14.6327 9.72515 14.673 9.58047 14.75L5.82047 16.75L6.54047 12.56C6.5684 12.3993 6.55658 12.2341 6.50603 12.079C6.45548 11.9238 6.36774 11.7834 6.25047 11.67L3.25047 8.67L7.46047 8.06C7.62246 8.03747 7.77646 7.97554 7.90896 7.87965C8.04147 7.78376 8.14842 7.65684 8.22047 7.51L10.0005 3.7L11.8805 7.52C11.9525 7.66684 12.0595 7.79376 12.192 7.88965C12.3245 7.98554 12.4785 8.04747 12.6405 8.07L16.8505 8.68L13.8505 11.67Z" fill="white"/>
</svg>
