<svg width="20" height="17" viewBox="0 0 20 17" fill="none" xmlns="http://www.w3.org/2000/svg">
<path d="M13.4 8.15999L8.5 4.99999C8.34798 4.91222 8.17554 4.86601 8 4.86601C7.82446 4.86601 7.65202 4.91222 7.5 4.99999C7.35174 5.08551 7.22791 5.20765 7.14036 5.35473C7.05282 5.5018 7.00449 5.66889 7 5.83999V12.16C7.0013 12.3382 7.05019 12.5128 7.14161 12.6657C7.23303 12.8187 7.36367 12.9445 7.52 13.03C7.66543 13.1156 7.83123 13.1605 8 13.16C8.17714 13.1478 8.34869 13.0929 8.5 13L13.4 9.83999C13.5403 9.74933 13.6557 9.62496 13.7356 9.47822C13.8155 9.33149 13.8574 9.16707 13.8574 8.99999C13.8574 8.83291 13.8155 8.66849 13.7356 8.52176C13.6557 8.37502 13.5403 8.25064 13.4 8.15999ZM9 10.32V7.67999L11 8.99999L9 10.32ZM17.38 1.50999L15.83 1.30999C11.991 0.839948 8.109 0.839948 4.27 1.30999L2.72 1.50999C1.97471 1.5911 1.2854 1.94386 0.783675 2.50091C0.281954 3.05797 0.0029736 3.7803 0 4.52999V13.47C0.00635666 14.2086 0.280506 14.9197 0.771546 15.4715C1.26259 16.0232 1.93715 16.378 2.67 16.47L4.22 16.66C6.13776 16.893 8.06815 17.0066 10 17C11.9323 16.9999 13.8627 16.8797 15.78 16.64L17.33 16.45C18.0628 16.358 18.7374 16.0032 19.2285 15.4515C19.7195 14.8997 19.9936 14.1886 20 13.45V4.52999C19.9985 3.78796 19.7265 3.07194 19.235 2.51603C18.7435 1.96011 18.0662 1.60244 17.33 1.50999H17.38ZM18.05 13.51C18.0508 13.7619 17.9565 14.0049 17.7859 14.1903C17.6154 14.3756 17.3811 14.4898 17.13 14.51L15.58 14.7C11.9077 15.16 8.19232 15.16 4.52 14.7L2.97 14.51C2.71889 14.4898 2.48463 14.3756 2.31406 14.1903C2.1435 14.0049 2.04919 13.7619 2.05 13.51V4.52999C2.06192 4.28194 2.16055 4.04594 2.32869 3.86319C2.49683 3.68043 2.7238 3.5625 2.97 3.52999L4.47 3.29999C8.14273 2.84664 11.8573 2.84664 15.53 3.29999L17.08 3.48999C17.3262 3.5225 17.5532 3.64043 17.7213 3.82318C17.8894 4.00594 17.9881 4.24194 18 4.48999L18.05 13.51Z" fill="#242424"/>
</svg>
